<svg xmlns="http://www.w3.org/2000/svg" xmlns:xlink="http://www.w3.org/1999/xlink" height="800px" width="800px" id="Layer_1" viewBox="0 0 512 512" xml:space="preserve"><path style="fill:#7BD36A;" d="M337.139,253.378c53.6,53.6,137.404,17.878,137.404,17.878s35.722-83.804-17.878-137.403 S280.44,77.155,280.44,77.155S283.539,199.779,337.139,253.378z"></path><path d="M486.634,280.177c0.132-0.181,0.272-0.355,0.397-0.54c0.178-0.263,0.334-0.536,0.492-0.808 c0.084-0.144,0.176-0.284,0.256-0.433c0.158-0.293,0.296-0.594,0.435-0.897c0.053-0.116,0.117-0.227,0.167-0.344 c0.018-0.041,0.044-0.105,0.069-0.165c0.017-0.041,0.035-0.08,0.05-0.12c2.784-6.673,37.843-94.612-21.2-153.654 c-57.192-57.192-181.229-60.966-186.481-61.098c-4.116-0.092-8.102,1.486-11.017,4.401c-2.914,2.915-4.505,6.897-4.4,11.017 c0.132,5.253,3.908,129.29,61.098,186.48c26.523,26.522,58.877,34.055,87.077,34.055c34.575,0,62.905-11.324,66.581-12.858 c0.038-0.015,0.074-0.032,0.111-0.047c0.06-0.026,0.128-0.054,0.168-0.071c0.122-0.051,0.236-0.117,0.355-0.173 c0.296-0.135,0.594-0.272,0.883-0.427c0.152-0.081,0.296-0.176,0.445-0.263c0.268-0.156,0.537-0.311,0.796-0.486 c0.188-0.126,0.366-0.268,0.548-0.402c0.208-0.153,0.418-0.298,0.618-0.463c0.358-0.293,0.699-0.605,1.027-0.928 c0.021-0.021,0.044-0.038,0.065-0.059c0.021-0.021,0.038-0.044,0.059-0.065c0.325-0.329,0.636-0.671,0.93-1.027 C486.333,280.598,486.48,280.384,486.634,280.177z M347.776,242.74c-37.611-37.611-48.305-115.5-51.238-149.499 c33.987,2.909,111.801,13.559,149.489,51.249c30.027,30.025,27.016,72.556,21.365,98.342l-53.708-53.708 c-5.874-5.874-15.399-5.874-21.275,0c-5.874,5.874-5.874,15.399,0,21.275l53.707,53.707 C420.321,269.757,377.796,272.762,347.776,242.74z"></path><path d="M371.137,182.893c-0.978,0-1.971-0.105-2.933-0.301c-0.963-0.181-1.91-0.481-2.813-0.857 c-0.918-0.376-1.79-0.842-2.602-1.384c-0.827-0.542-1.595-1.173-2.286-1.865c-0.692-0.692-1.324-1.459-1.865-2.286 c-0.542-0.812-1.008-1.685-1.384-2.602c-0.376-0.903-0.662-1.85-0.857-2.813s-0.301-1.956-0.301-2.933 c0-0.978,0.105-1.971,0.301-2.948c0.196-0.948,0.481-1.895,0.857-2.813c0.376-0.903,0.842-1.775,1.384-2.587 c0.542-0.827,1.173-1.595,1.865-2.286c0.692-0.692,1.459-1.324,2.286-1.88c0.812-0.542,1.685-1.008,2.602-1.384 c0.903-0.376,1.85-0.662,2.813-0.857c1.94-0.391,3.941-0.391,5.867,0c0.963,0.196,1.91,0.481,2.828,0.857 c0.903,0.376,1.775,0.842,2.587,1.384c0.827,0.557,1.595,1.188,2.286,1.88c0.692,0.692,1.324,1.459,1.865,2.286 c0.542,0.812,1.008,1.685,1.384,2.587c0.376,0.918,0.677,1.865,0.857,2.813c0.196,0.978,0.301,1.971,0.301,2.948 c0,0.978-0.105,1.971-0.301,2.933c-0.181,0.963-0.481,1.91-0.857,2.813c-0.376,0.918-0.842,1.79-1.384,2.602 c-0.542,0.827-1.173,1.595-1.865,2.286c-0.692,0.692-1.459,1.324-2.286,1.865c-0.812,0.542-1.685,1.008-2.587,1.384 c-0.918,0.376-1.865,0.677-2.828,0.857C373.106,182.788,372.114,182.893,371.137,182.893z"></path><polygon style="fill:#00D7DF;" points="108.043,206.467 15.043,206.467 15.043,276.812 15.043,392.274 108.043,391.999 "></polygon><g>	<path style="fill:#FFF476;" d="M455.685,352.113H317.827c-2.014,4.997-5.045,9.68-9.095,13.729l-0.132,0.132  c-16.118,16.118-42.252,16.118-58.37,0l-50.808-50.754c-24.261-24.235-57.09-37.94-91.379-38.15l0,0v114.927l40.836,25.639  c17.908,11.244,38.626,17.209,59.772,17.209h247.034c22.794,0,41.274-18.478,41.274-41.274v-0.188  C496.957,370.592,478.479,352.113,455.685,352.113z"></path>	<path style="fill:#FFF476;" d="M308.733,307.475l-57.742-53.164c-33.416-30.767-77.176-47.843-122.599-47.843h-20.348H15.043  h93.001v70.607l0,0c34.303,0.105,67.17,13.79,91.409,38.062l50.778,50.841c16.118,16.118,42.252,16.118,58.37,0l0.132-0.132  C324.851,349.725,324.851,323.593,308.733,307.475z"></path></g><path d="M455.685,337.069H335.827c0.105-14.558-5.375-29.15-16.458-40.233c-0.146-0.146-0.295-0.289-0.447-0.43l-57.742-53.163 c-36.295-33.416-83.453-51.82-132.787-51.82h-20.35H15.043C6.735,191.423,0,198.157,0,206.465v185.808 c0,3.997,1.592,7.831,4.421,10.653c2.82,2.811,6.64,4.389,10.622,4.389c0.015,0,0.03,0,0.045,0l88.644-0.263l37.148,23.324 c20.33,12.764,43.763,19.512,67.77,19.512h247.035c31.052,0,56.315-25.263,56.315-56.316v-0.188 C512,362.333,486.737,337.069,455.685,337.069z M240.802,265.376l57.488,52.932c10.033,10.242,9.967,26.737-0.194,36.898 l-0.132,0.132c-4.954,4.955-11.541,7.684-18.548,7.684s-13.594-2.729-18.554-7.688l-50.764-50.829 c-23.674-23.703-54.138-38.199-87.011-41.665v-41.331h5.306C170.156,221.509,210.077,237.089,240.802,265.376z M30.085,221.509 h62.916v55.564v99.928l-62.916,0.185V221.509z M481.915,393.574c0,14.463-11.766,26.231-26.23,26.231H208.651 c-18.338,0-36.242-5.154-51.772-14.906l-33.792-21.218v-90.495c24.796,3.389,47.717,14.706,65.706,32.677l50.8,50.748 c10.637,10.637,24.78,16.496,39.822,16.496c15.043,0,29.184-5.859,39.822-16.494l0.132-0.132c0.698-0.698,1.373-1.411,2.028-2.136 c0.319-0.353,0.62-0.721,0.928-1.082c0.32-0.373,0.648-0.742,0.957-1.121c0.37-0.454,0.719-0.924,1.074-1.388 c0.227-0.298,0.462-0.591,0.681-0.892c0.364-0.496,0.708-1.006,1.054-1.515c0.191-0.281,0.39-0.56,0.576-0.844 c0.077-0.117,0.161-0.23,0.238-0.347h128.78c14.463,0,26.23,11.766,26.23,26.231v0.187H481.915z"></path></svg>